<svg width="181" height="43" viewBox="0 0 181 43" fill="none" xmlns="http://www.w3.org/2000/svg">
<path d="M7.27657 39.4321C7.27657 41.4045 6.10692 42.5958 4.37954 42.5958C2.65217 42.5958 1.60645 41.2467 1.60645 39.5425C1.60645 37.7437 2.73737 36.3945 4.47249 36.3945C6.20761 36.3945 7.26883 37.7752 7.26883 39.4321H7.27657ZM3.02398 39.511C3.02398 40.6865 3.5662 41.5149 4.457 41.5149C5.3478 41.5149 5.87454 40.6392 5.87454 39.4715C5.87454 38.3906 5.37104 37.4675 4.44925 37.4675C3.52747 37.4675 3.02398 38.3433 3.02398 39.511Z" fill="white"/>
<path d="M8.15227 42.4928V36.4888H9.70924L10.9331 38.69C11.2817 39.3212 11.6303 40.0707 11.8936 40.7492H11.9169C11.8317 39.9602 11.8007 39.1476 11.8007 38.2482V36.4967H13.0246V42.5007H11.6225L10.3599 40.1811C10.0113 39.5421 9.62403 38.761 9.33743 38.0588H9.31418C9.34517 38.8636 9.36841 39.7078 9.36841 40.6861V42.4928H8.14453H8.15227Z" fill="white"/>
<path d="M17.6955 39.9523H15.5266V41.3804H17.9511V42.4928H14.1865V36.4888H17.8272V37.6012H15.5266V38.8478H17.6955V39.9523Z" fill="white"/>
<path d="M20.8319 39.708V40.6074H18.5391V39.708H20.8319Z" fill="white"/>
<path d="M21.7154 41.0968C22.0718 41.2861 22.6217 41.4676 23.195 41.4676C23.8069 41.4676 24.1322 41.2072 24.1322 40.8206C24.1322 40.434 23.8534 40.2289 23.1407 39.9764C22.1647 39.6293 21.5218 39.077 21.5218 38.2013C21.5218 37.1756 22.3584 36.3945 23.7527 36.3945C24.4188 36.3945 24.9068 36.5365 25.2554 36.6943L24.9611 37.791C24.7287 37.6727 24.3026 37.507 23.7294 37.507C23.1562 37.507 22.8696 37.7752 22.8696 38.0829C22.8696 38.4695 23.2027 38.6352 23.9618 38.9271C24.9998 39.3216 25.4955 39.8739 25.4955 40.7181C25.4955 41.7279 24.7364 42.58 23.1175 42.58C22.4436 42.58 21.7774 42.3986 21.4443 42.2171L21.7154 41.0968Z" fill="white"/>
<path d="M27.5323 37.625H25.9521V36.481H30.4836V37.625H28.8724V42.4929H27.5323V37.625Z" fill="white"/>
<path d="M36.3244 39.4321C36.3244 41.4045 35.1548 42.5958 33.4274 42.5958C31.7 42.5958 30.6543 41.2467 30.6543 39.5425C30.6543 37.7437 31.7852 36.3945 33.5203 36.3945C35.2555 36.3945 36.3167 37.7752 36.3167 39.4321H36.3244ZM32.0641 39.511C32.0641 40.6865 32.6063 41.5149 33.4971 41.5149C34.3879 41.5149 34.9146 40.6392 34.9146 39.4715C34.9146 38.3906 34.4111 37.4675 33.4894 37.4675C32.5676 37.4675 32.0641 38.3433 32.0641 39.511Z" fill="white"/>
<path d="M37.1997 36.5676C37.6102 36.4966 38.1912 36.4414 39.0045 36.4414C39.8179 36.4414 40.4143 36.5992 40.8094 36.9227C41.1889 37.2225 41.4368 37.7274 41.4368 38.3113C41.4368 38.8951 41.2432 39.4 40.8946 39.7393C40.4376 40.1732 39.7637 40.3705 38.9813 40.3705C38.8031 40.3705 38.6482 40.3626 38.5243 40.3468V42.4928H37.1997V36.5676ZM38.5243 39.2975C38.6405 39.3211 38.7799 39.329 38.9736 39.329C39.6785 39.329 40.12 38.9661 40.12 38.3507C40.12 37.7984 39.7404 37.4671 39.082 37.4671C38.8109 37.4671 38.625 37.4907 38.532 37.5223V39.2975H38.5243Z" fill="white"/>
<path d="M47.5563 39.9523H45.3874V41.3804H47.812V42.4928H44.0474V36.4888H47.688V37.6012H45.3874V38.8478H47.5563V39.9523Z" fill="white"/>
<path d="M48.7183 36.5676C49.2063 36.4887 49.8492 36.4414 50.5231 36.4414C51.6463 36.4414 52.3667 36.6465 52.9399 37.0805C53.5518 37.546 53.9391 38.2797 53.9391 39.3448C53.9391 40.4967 53.5286 41.2857 52.9631 41.7748C52.3434 42.3034 51.3984 42.548 50.2442 42.548C49.5548 42.548 49.0668 42.5007 48.7338 42.4612V36.5676H48.7183ZM50.0583 41.4671C50.1745 41.4908 50.3527 41.4908 50.5231 41.4908C51.7315 41.4987 52.5138 40.8202 52.5138 39.3842C52.5216 38.1377 51.8012 37.475 50.6625 37.475C50.3682 37.475 50.1745 37.4986 50.0583 37.5302V41.4592V41.4671Z" fill="white"/>
<path d="M56.1307 36.4888V39.9444C56.1307 40.978 56.518 41.5066 57.1996 41.5066C57.8813 41.5066 58.2841 41.0095 58.2841 39.9444V36.4888H59.6164V39.8577C59.6164 41.7117 58.6946 42.5954 57.1609 42.5954C55.6272 42.5954 54.7983 41.7591 54.7983 39.8419V36.4888H56.1384H56.1307Z" fill="white"/>
<path d="M65.0934 42.3193C64.8455 42.4455 64.2955 42.5796 63.5829 42.5796C61.5457 42.5796 60.4922 41.2857 60.4922 39.5737C60.4922 37.5223 61.9252 36.3862 63.7146 36.3862C64.404 36.3862 64.9307 36.5282 65.1631 36.6545L64.892 37.7354C64.6209 37.617 64.2413 37.5145 63.7688 37.5145C62.7076 37.5145 61.8865 38.1614 61.8865 39.5027C61.8865 40.7019 62.5836 41.4593 63.7765 41.4593C64.1793 41.4593 64.6286 41.3725 64.8842 41.262L65.0856 42.3193H65.0934Z" fill="white"/>
<path d="M67.425 40.9543L67.0067 42.4928H65.6279L67.4328 36.4888H69.1834L71.0115 42.4928H69.5784L69.1214 40.9543H67.4328H67.425ZM68.9278 39.9365L68.5637 38.6584C68.4552 38.3034 68.3546 37.8537 68.2693 37.4986H68.2538C68.1686 37.8537 68.0757 38.3113 67.9827 38.6584L67.6342 39.9365H68.9355H68.9278Z" fill="white"/>
<path d="M72.2047 37.625H70.6245V36.481H75.156V37.625H73.5448V42.4929H72.2047V37.625Z" fill="white"/>
<path d="M77.1926 36.4888V42.4928H75.8525V36.4888H77.1926Z" fill="white"/>
<path d="M83.7458 39.4321C83.7458 41.4045 82.5762 42.5958 80.8488 42.5958C79.1214 42.5958 78.0757 41.2467 78.0757 39.5425C78.0757 37.7437 79.2066 36.3945 80.9417 36.3945C82.6769 36.3945 83.7381 37.7752 83.7381 39.4321H83.7458ZM79.4855 39.511C79.4855 40.6865 80.0277 41.5149 80.9185 41.5149C81.8093 41.5149 82.336 40.6392 82.336 39.4715C82.336 38.3906 81.8248 37.4675 80.9108 37.4675C79.9967 37.4675 79.4855 38.3433 79.4855 39.511Z" fill="white"/>
<path d="M84.6215 42.4928V36.4888H86.1785L87.4024 38.69C87.7509 39.3212 88.0995 40.0707 88.3629 40.7492H88.3861C88.3009 39.9602 88.2699 39.1476 88.2699 38.2482V36.4967H89.4938V42.5007H88.0918L86.8291 40.1811C86.4806 39.5421 86.0933 38.761 85.8067 38.0588H85.7834C85.8222 38.8636 85.8377 39.7078 85.8377 40.6861V42.4928H84.6138H84.6215Z" fill="white"/>
<path d="M93.7927 40.9543L93.3744 42.4928H91.9956L93.8004 36.4888H95.5511L97.3791 42.4928H95.9461L95.4891 40.9543H93.8004H93.7927ZM95.2877 39.9365L94.9236 38.6584C94.8152 38.3034 94.7145 37.8537 94.6293 37.4986H94.6138C94.5286 37.8537 94.4356 38.3113 94.3427 38.6584L93.9941 39.9365H95.2954H95.2877Z" fill="white"/>
<path d="M98.1533 42.4928V36.4888H99.7102L100.934 38.69C101.283 39.3212 101.631 40.0707 101.895 40.7492H101.918C101.833 39.9602 101.802 39.1476 101.802 38.2482V36.4967H103.026V42.5007H101.624L100.361 40.1811C100.012 39.5421 99.625 38.761 99.3384 38.0588H99.3152C99.3539 38.8636 99.3694 39.7078 99.3694 40.6861V42.4928H98.1455H98.1533Z" fill="white"/>
<path d="M104.188 36.5676C104.676 36.4887 105.319 36.4414 105.993 36.4414C107.116 36.4414 107.836 36.6465 108.41 37.0805C109.022 37.546 109.409 38.2797 109.409 39.3448C109.409 40.4967 108.998 41.2857 108.433 41.7748C107.813 42.3034 106.868 42.548 105.714 42.548C105.025 42.548 104.537 42.5007 104.203 42.4612V36.5676H104.188ZM105.528 41.4671C105.644 41.4908 105.822 41.4908 105.993 41.4908C107.201 41.4987 107.984 40.8202 107.984 39.3842C107.991 38.1377 107.279 37.475 106.132 37.475C105.838 37.475 105.644 37.4986 105.528 37.5302V41.4592V41.4671Z" fill="white"/>
<path d="M116.372 42.3193C116.124 42.4455 115.574 42.5796 114.862 42.5796C112.824 42.5796 111.771 41.2857 111.771 39.5737C111.771 37.5223 113.204 36.3862 114.993 36.3862C115.683 36.3862 116.21 36.5282 116.442 36.6545L116.171 37.7354C115.9 37.617 115.52 37.5145 115.048 37.5145C113.986 37.5145 113.165 38.1614 113.165 39.5027C113.165 40.7019 113.862 41.4593 115.055 41.4593C115.458 41.4593 115.907 41.3725 116.163 41.262L116.364 42.3193H116.372Z" fill="white"/>
<path d="M118.704 40.9543L118.286 42.4928H116.907L118.712 36.4888H120.462L122.29 42.4928H120.857L120.4 40.9543H118.712H118.704ZM120.199 39.9365L119.835 38.6584C119.726 38.3034 119.626 37.8537 119.54 37.4986H119.525C119.44 37.8537 119.347 38.3113 119.254 38.6584L118.905 39.9365H120.207H120.199Z" fill="white"/>
<path d="M123.065 36.5676C123.491 36.4966 124.134 36.4414 124.839 36.4414C125.714 36.4414 126.326 36.5755 126.744 36.9148C127.093 37.1988 127.287 37.617 127.287 38.1692C127.287 38.9345 126.752 39.4631 126.249 39.6525V39.6762C126.659 39.8419 126.884 40.2442 127.039 40.7965C127.225 41.475 127.403 42.2561 127.519 42.4928H126.156C126.063 42.3271 125.923 41.83 125.745 41.0963C125.59 40.3468 125.335 40.1417 124.792 40.1338H124.39V42.4928H123.065V36.5676ZM124.39 39.1554H124.916C125.582 39.1554 125.977 38.8162 125.977 38.2955C125.977 37.7432 125.613 37.4671 125.001 37.4592C124.676 37.4592 124.49 37.4828 124.397 37.5065V39.1633L124.39 39.1554Z" fill="white"/>
<path d="M131.757 39.9523H129.588V41.3804H132.012V42.4928H128.248V36.4888H131.888V37.6012H129.588V38.8478H131.757V39.9523Z" fill="white"/>
<path d="M136.427 39.9523H134.258V41.3804H136.683V42.4928H132.918V36.4888H136.559V37.6012H134.258V38.8478H136.427V39.9523Z" fill="white"/>
<path d="M137.589 36.5676C138.015 36.4966 138.658 36.4414 139.363 36.4414C140.238 36.4414 140.85 36.5755 141.268 36.9148C141.617 37.1988 141.81 37.617 141.81 38.1692C141.81 38.9345 141.276 39.4631 140.773 39.6525V39.6762C141.183 39.8419 141.408 40.2442 141.563 40.7965C141.749 41.475 141.927 42.2561 142.043 42.4928H140.68C140.587 42.3271 140.447 41.83 140.269 41.0963C140.114 40.3468 139.858 40.1417 139.316 40.1338H138.913V42.4928H137.589V36.5676ZM138.913 39.1554H139.44C140.106 39.1554 140.501 38.8162 140.501 38.2955C140.501 37.7432 140.137 37.4671 139.525 37.4592C139.2 37.4592 139.014 37.4828 138.921 37.5065V39.1633L138.913 39.1554Z" fill="white"/>
<path d="M148.875 42.3193C148.627 42.4455 148.077 42.5796 147.365 42.5796C145.327 42.5796 144.274 41.2857 144.274 39.5737C144.274 37.5223 145.707 36.3862 147.496 36.3862C148.186 36.3862 148.712 36.5282 148.945 36.6545L148.674 37.7354C148.403 37.617 148.023 37.5145 147.551 37.5145C146.489 37.5145 145.668 38.1614 145.668 39.5027C145.668 40.7019 146.365 41.4593 147.558 41.4593C147.961 41.4593 148.41 41.3725 148.666 41.262L148.867 42.3193H148.875Z" fill="white"/>
<path d="M153.252 39.9523H151.083V41.3804H153.507V42.4928H149.743V36.4888H153.383V37.6012H151.083V38.8478H153.252V39.9523Z" fill="white"/>
<path d="M154.413 42.4928V36.4888H155.97L157.194 38.69C157.542 39.3212 157.891 40.0707 158.154 40.7492H158.178C158.092 39.9602 158.061 39.1476 158.061 38.2482V36.4967H159.285V42.5007H157.883L156.621 40.1811C156.272 39.5421 155.885 38.761 155.598 38.0588H155.575C155.606 38.8636 155.629 39.7078 155.629 40.6861V42.4928H154.405H154.413Z" fill="white"/>
<path d="M161.587 37.625H160.006V36.481H164.538V37.625H162.927V42.4929H161.587V37.625Z" fill="white"/>
<path d="M168.744 39.9523H166.575V41.3804H168.999V42.4928H165.235V36.4888H168.876V37.6012H166.575V38.8478H168.744V39.9523Z" fill="white"/>
<path d="M169.905 36.5676C170.331 36.4966 170.974 36.4414 171.679 36.4414C172.554 36.4414 173.166 36.5755 173.585 36.9148C173.933 37.1988 174.127 37.617 174.127 38.1692C174.127 38.9345 173.592 39.4631 173.089 39.6525V39.6762C173.499 39.8419 173.724 40.2442 173.879 40.7965C174.065 41.475 174.243 42.2561 174.359 42.4928H172.996C172.903 42.3271 172.756 41.83 172.585 41.0963C172.43 40.3468 172.175 40.1417 171.633 40.1338H171.23V42.4928H169.905V36.5676ZM171.23 39.1554H171.757C172.423 39.1554 172.818 38.8162 172.818 38.2955C172.818 37.7432 172.454 37.4671 171.842 37.4592C171.516 37.4592 171.331 37.4828 171.238 37.5065V39.1633L171.23 39.1554Z" fill="white"/>
<path d="M180.177 3.99167C180.177 5.56961 178.938 6.81617 177.35 6.81617C175.762 6.81617 174.507 5.56961 174.507 3.99167C174.507 2.41374 175.777 1.19873 177.35 1.19873C178.922 1.19873 180.177 2.4453 180.177 3.99167ZM175.297 4.00745C175.297 5.20668 176.18 6.16922 177.357 6.16922C178.535 6.16922 179.395 5.20668 179.395 4.00745C179.395 2.80822 178.527 1.84568 177.357 1.84568C176.188 1.84568 175.297 2.80822 175.297 4.00745ZM176.962 5.38814H176.242V2.71355C176.451 2.68199 176.846 2.62676 177.334 2.62676C177.892 2.62676 178.132 2.71355 178.31 2.824C178.488 2.93446 178.605 3.13959 178.605 3.40784C178.605 3.69187 178.357 3.92067 178.016 4.02323V4.05479C178.295 4.15736 178.442 4.37038 178.519 4.7333C178.605 5.13567 178.666 5.28558 178.713 5.38025H177.915C177.83 5.27769 177.783 5.04889 177.721 4.76486C177.675 4.48083 177.528 4.36249 177.233 4.36249H176.955V5.38025L176.962 5.38814ZM176.978 3.85755H177.257C177.567 3.85755 177.799 3.7392 177.799 3.5104C177.799 3.2816 177.621 3.14748 177.295 3.14748C177.164 3.14748 177.071 3.16326 176.986 3.16326V3.85755H176.978Z" fill="white"/>
<path d="M8.06674 22.1065C7.84211 22.1065 7.62522 22.0986 7.40058 22.0749C4.06977 21.783 0.475586 19.2189 0.475586 15.5975H3.57402C3.57402 17.349 5.73517 18.7613 7.66394 18.9348C9.25189 19.069 10.8089 18.3194 11.7694 17.0413L0.78543 12.9071L0.940349 11.6606C1.39737 7.98397 4.44158 5.18314 8.02026 5.1358C9.94129 5.12791 11.8701 5.90899 13.2876 7.32913C14.6044 8.65459 15.3326 10.3666 15.3326 12.1497H12.2341C12.2341 11.2187 11.8391 10.3035 11.1109 9.57768C10.2976 8.75716 9.16668 8.29167 8.059 8.29167C6.41683 8.31534 4.96831 9.36466 4.32539 10.8716L15.9058 15.2346L15.4178 16.6942C14.3256 19.9605 11.3511 22.1144 8.059 22.1144L8.06674 22.1065Z" fill="white"/>
<path d="M24.3334 21.9485C21.1266 21.9485 18.2373 19.5263 17.6873 16.2127L17.6641 15.9444V0.109863H20.7625V15.8024C21.1421 17.6959 22.9159 19.0135 24.775 18.7689C26.5875 18.5243 27.9044 16.8833 27.9044 14.8714H31.0028C31.0028 18.4928 28.555 21.4435 25.1778 21.9011C24.8911 21.9406 24.6123 21.9563 24.3334 21.9563V21.9485Z" fill="white"/>
<path d="M23.4814 6.3584H19.2056V9.51426H23.4814V6.3584Z" fill="white"/>
<path d="M134.668 21.9485C131.462 21.9485 128.572 19.5263 128.022 16.2127L127.999 15.9444V0.109863H131.097V15.8024C131.477 17.6959 133.243 19.0214 135.11 18.7689C136.938 18.5243 138.309 16.836 138.239 14.9267L141.338 14.8083C141.469 18.3271 138.913 21.4435 135.513 21.8932C135.226 21.9327 134.947 21.9485 134.668 21.9485Z" fill="white"/>
<path d="M133.816 6.3584H129.54V9.51426H133.816V6.3584Z" fill="white"/>
<path d="M40.7316 21.8618C40.5689 21.8618 40.4063 21.8618 40.2436 21.846C36.9283 21.6172 33.4038 19.487 33.4038 16.0076V7.29744H36.5022V16.0076C36.5022 17.5856 38.7951 18.5797 40.4527 18.698C41.7773 18.7848 43.4195 18.2088 44.3568 17.3173C44.6743 17.0175 45.0462 16.5441 45.0462 15.9997V7.28955H48.1446V21.0807H45.0462V20.6704C43.7448 21.4199 42.1801 21.8539 40.7238 21.8539L40.7316 21.8618Z" fill="white"/>
<path d="M57.0141 22.2246C56.9677 22.2246 56.9212 22.2246 56.8747 22.2246C52.9552 22.1536 49.6244 18.8399 49.4462 14.8478C49.2681 10.9029 52.1883 7.37625 56.0846 6.81608C57.8894 6.55572 59.6943 6.98176 61.2047 7.9443V0.109863H64.3032V16.7255L64.2102 16.9937C63.0638 20.1417 60.1823 22.2325 57.0141 22.2325V22.2246ZM57.1303 9.89305C56.9289 9.89305 56.7198 9.90883 56.5184 9.94039C54.4734 10.2323 52.4207 12.0943 52.5446 14.7057C52.6531 17.0726 54.6206 19.0293 56.9367 19.0766C58.757 19.124 60.4456 17.9405 61.2125 16.1417V12.2994C60.314 10.8083 58.757 9.90094 57.1381 9.90094L57.1303 9.89305Z" fill="white"/>
<path d="M73.273 34.3195C71.4062 34.3195 69.6634 33.6963 68.5402 32.7101C66.6192 31.0059 65.6819 29.2386 65.6819 27.3135H68.7803C68.7803 27.9289 68.9662 28.9072 70.5697 30.3353C71.4605 31.1242 74.1174 31.7633 76.232 30.2406C76.6348 29.9487 77.3242 29.1203 77.394 28.7968L77.5024 19.8578C76.2011 20.8913 74.5744 21.4831 72.7463 21.4831C68.4782 21.4831 65.2559 17.625 65.2559 12.5125V7.31322H68.3543V12.5125C68.3543 15.8814 70.1979 18.3272 72.7463 18.3272C75.5504 18.3272 77.5179 16.055 77.5876 12.7729V12.6309C77.5876 12.6309 77.5876 12.6151 77.5876 12.5993L77.6496 7.28955L80.748 7.329L80.686 12.623C80.686 12.7255 80.686 12.8281 80.686 12.9228L80.4924 28.8993C80.4304 30.9901 78.0524 32.8047 78.0291 32.8205C76.5574 33.8856 74.8687 34.3353 73.273 34.3353V34.3195Z" fill="white"/>
<path d="M109.037 21.0965L105.938 21.0807C105.938 20.5442 105.931 19.8499 105.915 19.0215C105.9 17.8302 105.876 16.3548 105.876 14.6585C105.884 11.5658 103.576 9.37243 101.492 9.34876C100.377 9.33299 99.5245 9.94838 99.0055 10.4691C97.8359 11.6447 97.1232 13.5461 97.0923 15.5816C97.0923 15.6289 97.0923 15.6842 97.0923 15.7315V21.0965H93.9938C93.9938 20.5048 93.9938 19.9051 93.9938 19.3134C93.9938 18.1142 93.9861 16.9071 93.9938 15.7078C93.9938 15.6605 93.9938 15.6053 93.9938 15.5579C93.9938 13.4041 93.2115 11.4316 91.8404 10.122C90.9341 9.25409 89.8652 8.79649 88.8969 8.88327C86.8752 9.04896 84.6985 11.7078 84.6985 15.7236V21.0965H81.6001V15.7236C81.6001 10.4375 84.6985 6.05088 88.649 5.7353C90.5003 5.58539 92.3904 6.32702 93.9551 7.81817C94.5748 8.4099 95.117 9.0963 95.5585 9.84581C95.9226 9.2462 96.3486 8.70181 96.8211 8.22843C98.1225 6.91875 99.7647 6.20079 101.446 6.20079C101.469 6.20079 101.5 6.20079 101.523 6.20079C105.566 6.25602 108.975 10.1377 108.959 14.6822C108.959 16.3548 108.975 17.8065 108.998 18.982C109.013 19.842 109.021 20.56 109.021 21.1123L109.037 21.0965Z" fill="white"/>
<path d="M125.226 21.317L115.691 21.1987L115.373 21.0409C112.445 19.5655 110.71 16.4333 111.051 13.2617C111.454 9.52197 114.707 6.47656 118.301 6.47656C122.081 6.47656 125.04 9.53775 125.04 13.451V15.0053L123.514 15.029C121.671 15.0605 119.812 15.0368 118.014 15.0211C116.767 15.0053 115.489 14.9974 114.211 14.9974C114.482 16.244 115.296 17.3643 116.465 18.0586L125.265 18.169L125.226 21.3249V21.317ZM114.73 11.8336C115.846 11.8336 116.961 11.8494 118.045 11.8573C119.223 11.8731 120.424 11.8889 121.632 11.881C121.121 10.6265 119.99 9.62454 118.301 9.62454C117.023 9.62454 115.543 10.4766 114.73 11.8336Z" fill="white"/>
<path d="M146.76 21.0884H143.662V11.5577L143.786 11.2579C144.986 8.38601 147.721 6.46094 150.749 6.35048C152.802 6.27158 154.979 7.08422 156.373 8.45702C157.403 9.47479 157.945 10.7135 157.945 12.0468H154.847C154.847 11.5813 154.638 11.1316 154.22 10.7214C153.437 9.94817 152.097 9.4669 150.858 9.50635C149.123 9.56946 147.542 10.6188 146.76 12.2204V21.0805V21.0884Z" fill="white"/>
<path d="M167.078 21.6174C163.569 21.6174 160.494 19.1005 159.712 15.5581L159.673 15.2109L159.712 11.9841C160.471 8.45739 163.561 5.9248 167.078 5.9248C167.117 5.9248 167.148 5.9248 167.187 5.9248C170.649 5.97214 173.701 8.52051 174.445 11.9841L174.483 12.3233L174.445 15.5581C173.686 19.0217 170.75 21.5148 167.295 21.6095C167.225 21.6095 167.156 21.6095 167.078 21.6095V21.6174ZM162.771 15.0216C163.29 17.0335 165.064 18.4536 167.078 18.4536C167.117 18.4536 167.163 18.4536 167.202 18.4536C169.177 18.3984 170.874 16.994 171.377 15.0216V12.4969C170.881 10.5324 169.123 9.09645 167.14 9.07278C165.095 9.03333 163.283 10.4771 162.771 12.4969V15.0216Z" fill="white"/>
</svg>
