<svg width="76" height="81" viewBox="0 0 76 81" fill="none" xmlns="http://www.w3.org/2000/svg">
<path d="M4.18629 12.3794C2.80018 12.6735 1.90663 14.0482 2.20072 15.4345L15.0542 76.0211C15.3483 77.4073 16.723 78.3009 18.1093 78.0068L21.1338 77.3651L7.21098 11.7377L4.18629 12.3794Z" stroke="#CEB3FE" stroke-width="4" stroke-miterlimit="10" stroke-linecap="round" stroke-linejoin="round"/>
<path d="M62.9146 26.5494L44.274 30.504C43.1481 30.7429 42.429 31.8494 42.6679 32.9753L50.3195 69.0423C50.5584 70.1683 51.6647 70.8875 52.7907 70.6486L71.4313 66.694C72.5573 66.4552 73.2765 65.3487 73.0376 64.2227L65.386 28.1557C65.1471 27.0297 64.0406 26.3105 62.9146 26.5494Z" stroke="#CEB3FE" stroke-width="4" stroke-miterlimit="10" stroke-linecap="round" stroke-linejoin="round"/>
<path d="M59.6494 34.6924L63.0997 50.9557" stroke="#CEB3FE" stroke-width="4" stroke-miterlimit="10" stroke-linecap="round" stroke-linejoin="round"/>
<path d="M55.1069 35.6562L58.5572 51.9196" stroke="#CEB3FE" stroke-width="4" stroke-miterlimit="10" stroke-linecap="round" stroke-linejoin="round"/>
<path d="M50.5645 36.6201L54.0147 52.8834" stroke="#CEB3FE" stroke-width="4" stroke-miterlimit="10" stroke-linecap="round" stroke-linejoin="round"/>
<path d="M29.852 17.5362C21.3815 19.3332 15.9714 27.6568 17.7684 36.1273C19.5655 44.5978 27.889 50.0078 36.3596 48.2107C39.78 47.4851 42.7008 45.695 44.85 43.2612L42.6679 32.9755C42.4291 31.8495 43.1481 30.743 44.2741 30.5041L48.443 29.6197C46.6461 21.1492 38.3225 15.7392 29.852 17.5362Z" stroke="#CEB3FE" stroke-width="4" stroke-miterlimit="10" stroke-linecap="round" stroke-linejoin="round"/>
<path d="M36.3595 48.2108C41.2149 47.1807 43.6941 39.479 41.8971 31.0085C40.1001 22.5379 34.7073 16.5062 29.8519 17.5363C24.9966 18.5663 22.5173 26.2681 24.3143 34.7386C26.1114 43.2092 31.5042 49.2409 36.3595 48.2108Z" stroke="#CEB3FE" stroke-width="4" stroke-miterlimit="10" stroke-linecap="round" stroke-linejoin="round"/>
<path d="M27.5036 58.5078C26.7638 58.6648 26.2913 59.3916 26.4482 60.1314L27.0563 62.9976C27.2132 63.7373 27.9401 64.2097 28.6799 64.0528L48.3748 59.8745L47.1984 54.3296L27.5036 58.5078Z" stroke="#CEB3FE" stroke-width="4" stroke-miterlimit="10" stroke-linecap="round" stroke-linejoin="round"/>
<path d="M29.998 18.2246L36.2623 47.7519" stroke="#CEB3FE" stroke-width="4" stroke-miterlimit="10" stroke-linecap="round" stroke-linejoin="round"/>
<path d="M47.3076 29.861L18.3657 36.001" stroke="#CEB3FE" stroke-width="4" stroke-miterlimit="10" stroke-linecap="round" stroke-linejoin="round"/>
<path d="M57.7417 59.4573L48.6934 61.377L50.3196 69.0423C50.5584 70.1683 51.6648 70.8875 52.7908 70.6487L71.4314 66.6941C72.5574 66.4552 73.2765 65.3487 73.0377 64.2227L71.4115 56.5573L62.3631 58.4769" stroke="#CEB3FE" stroke-width="4" stroke-miterlimit="10" stroke-linecap="round" stroke-linejoin="round"/>
<path d="M50.5394 14.1261L48.7231 5.56474C48.429 4.1785 47.0543 3.28495 45.668 3.57904L4.18629 12.3794C2.80018 12.6735 1.90663 14.0482 2.20072 15.4345L15.0542 76.0211C15.3483 77.4073 16.723 78.3009 18.1093 78.0068L52.7911 70.649C51.6651 70.8879 50.5587 70.1687 50.3198 69.0427L42.6682 32.9756C42.4293 31.8496 43.1485 30.7431 44.2744 30.5043L53.5947 28.527L51.52 18.7477" stroke="#CEB3FE" stroke-width="4" stroke-miterlimit="10" stroke-linecap="round" stroke-linejoin="round"/>
</svg>
